<?xml version="1.0" encoding="UTF-8" standalone="no"?>
<!-- Created with Inkscape (http://www.inkscape.org/) -->

<svg
   xmlns:dc="http://purl.org/dc/elements/1.1/"
   xmlns:cc="http://creativecommons.org/ns#"
   xmlns:rdf="http://www.w3.org/1999/02/22-rdf-syntax-ns#"
   xmlns:svg="http://www.w3.org/2000/svg"
   xmlns="http://www.w3.org/2000/svg"
   xmlns:sodipodi="http://sodipodi.sourceforge.net/DTD/sodipodi-0.dtd"
   xmlns:inkscape="http://www.inkscape.org/namespaces/inkscape"
   width="38.667576mm"
   height="30.7624mm"
   viewBox="0 0 137.0111 109.00063"
   id="svg2"
   version="1.1"
   inkscape:version="0.91 r13725"
   sodipodi:docname="logo.svg">
  <defs
     id="defs4" />
  <sodipodi:namedview
     id="base"
     pagecolor="#ffffff"
     bordercolor="#666666"
     borderopacity="1.0"
     inkscape:pageopacity="0.0"
     inkscape:pageshadow="2"
     inkscape:zoom="1.979899"
     inkscape:cx="-54.007159"
     inkscape:cy="53.616605"
     inkscape:document-units="px"
     inkscape:current-layer="g3417"
     showgrid="true"
     fit-margin-top="0"
     fit-margin-left="0"
     fit-margin-right="0"
     fit-margin-bottom="0"
     inkscape:window-width="1855"
     inkscape:window-height="1176"
     inkscape:window-x="1985"
     inkscape:window-y="24"
     inkscape:window-maximized="1" />
  <metadata
     id="metadata7">
    <rdf:RDF>
      <cc:Work
         rdf:about="">
        <dc:format>image/svg+xml</dc:format>
        <dc:type
           rdf:resource="http://purl.org/dc/dcmitype/StillImage" />
        <dc:title></dc:title>
      </cc:Work>
    </rdf:RDF>
  </metadata>
  <g
     inkscape:label="Vrstva 1"
     inkscape:groupmode="layer"
     id="layer1"
     transform="translate(-305.70438,-375.59292)">
    <g
       transform="matrix(0.09438674,0,0,0.09438674,234.85637,301.50434)"
       id="g3417">
      <path
         inkscape:connector-curvature="0"
         id="settings_1_"
         d="m 1891.6373,1297.1205 -88.759,-14.807 c -6.451,-26.374 -15.857,-51.585 -28.107,-75.099 l 56.821,-70.452 c 12.085,-14.889 11.536,-36.312 -1.205,-50.682 l -35.301,-39.729 c -12.796,-14.355 -34.016,-17.391 -50.202,-7.165 l -75.906,47.716 c -33.386,-23.326 -71.204,-40.551 -112,-50.546 l -14.85,-89.23516 c -3.116,-18.895 -19.467,-32.759 -38.661,-32.759 l -53.198,0 c -19.155,0 -35.561,13.864 -38.608,32.759 l -14.931,89.26316 c -33.729,8.258 -65.353,21.588 -94.213,39.144 l -72.188,-51.518 c -15.558,-11.1151 -36.927,-9.3771 -50.504,4.171 l -37.583,37.61 c -13.548,13.577 -15.286,34.946 -4.142,50.504 l 51.638,72.326 c -17.391,28.642 -30.584,60.086 -38.841,93.515 l -89.743,14.985 c -18.866,3.116 -32.757,19.4679 -32.757,38.6629 l 0,53.156 c 0,19.193 13.891,35.547 32.757,38.663 l 89.743,14.985 c 6.781,27.508 16.625,53.784 29.709,78.147 l -56.562,70.054 c -12.044,14.875 -11.538,36.312 1.203,50.669 l 35.274,39.73 c 12.797,14.382 34.028,17.363 50.216,7.163 l 77,-48.37 c 32.581,22.285 69.44,38.664 108.993,48.37 l 14.931,89.25 c 3.048,18.896 19.453,32.76 38.608,32.76 l 53.198,0 c 19.194,0 35.545,-13.863 38.661,-32.759 l 14.875,-89.25 c 33.308,-8.147 64.531,-21.245 93.134,-38.5 l 75.196,53.705 c 15.53,11.155 36.915,9.405 50.478,-4.186 l 37.598,-37.597 c 13.532,-13.536 15.365,-34.893 4.127,-50.479 l -53.536,-75.059 c 17.441,-28.738 30.704,-60.238 38.909,-93.816 l 88.758,-14.82 c 18.921,-3.116 32.756,-19.469 32.756,-38.663 l 0,-53.156 c -0.028,-19.192 -13.863,-35.5439 -32.786,-38.6609 z m -413.82,233.2419 c -92.764,0 -168,-75.25 -168,-168 0,-92.7639 75.236,-167.9999 168,-167.9999 92.748,0 167.998,75.236 167.998,167.9999 0,92.75 -75.25,168 -167.998,168 z" />
      <circle
         style="fill:#ffffff"
         id="path3480"
         cx="1476.4103"
         cy="1362.3618"
         r="258.4592" />
      <g
         id="g3504"
         transform="matrix(0.94072475,0,0,0.94072475,87.514583,80.754337)"
         style="fill:#666666">
        <text
           sodipodi:linespacing="125%"
           id="text3482"
           y="1767.0638"
           x="372.68857"
           style="font-style:normal;font-variant:normal;font-weight:500;font-stretch:normal;font-size:1686.25817871px;line-height:125%;font-family:KacstDecorative;-inkscape-font-specification:'KacstDecorative Medium';letter-spacing:0px;word-spacing:0px;fill:#666666;fill-opacity:1;stroke:none;stroke-width:1px;stroke-linecap:butt;stroke-linejoin:miter;stroke-opacity:1"
           xml:space="preserve"><tspan
             y="1767.0638"
             x="372.68857"
             id="tspan3484"
             sodipodi:role="line"
             style="font-style:normal;font-variant:normal;font-weight:500;font-stretch:normal;font-family:'Tlwg Typo';-inkscape-font-specification:'Tlwg Typo Medium';fill:#666666">{</tspan></text>
        <text
           transform="scale(-1,-1)"
           xml:space="preserve"
           style="font-style:normal;font-variant:normal;font-weight:500;font-stretch:normal;font-size:1686.25817871px;line-height:125%;font-family:KacstDecorative;-inkscape-font-specification:'KacstDecorative Medium';letter-spacing:0px;word-spacing:0px;fill:#666666;fill-opacity:1;stroke:none;stroke-width:1px;stroke-linecap:butt;stroke-linejoin:miter;stroke-opacity:1"
           x="-2580.1321"
           y="-957.65991"
           id="text3500"
           sodipodi:linespacing="125%"><tspan
             style="font-style:normal;font-variant:normal;font-weight:500;font-stretch:normal;font-family:'Tlwg Typo';-inkscape-font-specification:'Tlwg Typo Medium';fill:#666666"
             sodipodi:role="line"
             id="tspan3502"
             x="-2580.1321"
             y="-957.65991">{</tspan></text>
      </g>
    </g>
  </g>
</svg>
