<?xml version="1.0" encoding="UTF-8" standalone="no"?>
<!-- Created with Inkscape (http://www.inkscape.org/) -->

<svg
   xmlns:dc="http://purl.org/dc/elements/1.1/"
   xmlns:cc="http://creativecommons.org/ns#"
   xmlns:rdf="http://www.w3.org/1999/02/22-rdf-syntax-ns#"
   xmlns:svg="http://www.w3.org/2000/svg"
   xmlns="http://www.w3.org/2000/svg"
   xmlns:sodipodi="http://sodipodi.sourceforge.net/DTD/sodipodi-0.dtd"
   xmlns:inkscape="http://www.inkscape.org/namespaces/inkscape"
   width="39.403358mm"
   height="28.498257mm"
   viewBox="0 0 139.6182 100.97807"
   id="svg2"
   version="1.1"
   inkscape:version="0.91 r13725"
   sodipodi:docname="logo.svg"
   inkscape:export-filename="/home/ondrej/PhpstormProjects/json-machine/img/logo.png"
   inkscape:export-xdpi="82.877655"
   inkscape:export-ydpi="82.877655">
  <defs
     id="defs4" />
  <sodipodi:namedview
     id="base"
     pagecolor="#ffffff"
     bordercolor="#666666"
     borderopacity="1.0"
     inkscape:pageopacity="0.0"
     inkscape:pageshadow="2"
     inkscape:zoom="1.4"
     inkscape:cx="-132.34598"
     inkscape:cy="17.725416"
     inkscape:document-units="px"
     inkscape:current-layer="g3417"
     showgrid="true"
     fit-margin-top="0"
     fit-margin-left="0"
     fit-margin-right="0"
     fit-margin-bottom="0"
     inkscape:window-width="1855"
     inkscape:window-height="1176"
     inkscape:window-x="1985"
     inkscape:window-y="24"
     inkscape:window-maximized="1"
     inkscape:snap-page="false" />
  <metadata
     id="metadata7">
    <rdf:RDF>
      <cc:Work
         rdf:about="">
        <dc:format>image/svg+xml</dc:format>
        <dc:type
           rdf:resource="http://purl.org/dc/dcmitype/StillImage" />
        <dc:title></dc:title>
      </cc:Work>
    </rdf:RDF>
  </metadata>
  <g
     inkscape:label="Vrstva 1"
     inkscape:groupmode="layer"
     id="layer1"
     transform="translate(-304.40083,-379.60419)">
    <g
       transform="matrix(0.09438674,0,0,0.09438674,234.85637,301.50434)"
       id="g3417">
      <path
         inkscape:connector-curvature="0"
         id="settings_1_"
         d="m 1884.2342,1459.9638 -76.3362,-47.6465 c 4.1329,-26.8351 5.0908,-53.7265 2.7717,-80.1385 l 79.4565,-43.3447 c 16.8629,-9.1309 24.5539,-29.1333 18.2819,-47.2852 l -17.4102,-50.2139 c -6.3286,-18.1591 -24.7715,-29.0846 -43.6387,-25.8311 l -88.3881,15.0359 c -21.9182,-34.3267 -50.2657,-64.7129 -84.1314,-89.559 l 20.4292,-88.1254 c 4.352,-18.64909 -5.4488,-37.71502 -23.1818,-45.06024 l -49.1485,-20.35799 c -17.6969,-7.3303 -38.1596,-0.79994 -48.2055,15.49073 l -47.954,76.7545 c -34.3217,-5.2781 -68.6396,-5.0648 -102.0212,0.1106 L 1377.78,954.57147 c -10.1202,-16.2228 -30.5277,-22.79466 -48.2558,-15.47354 l -49.1149,20.36472 c -17.7124,7.35891 -27.4957,26.43619 -23.1538,45.07455 l 20.0294,86.5815 c -27.028,19.8065 -51.2499,43.8082 -71.6711,71.5328 l -88.6462,-20.4989 c -18.6224,-4.3409 -37.7136,5.4505 -45.0592,23.1843 l -20.3419,49.1098 c -7.3448,17.732 -0.7696,38.157 15.4678,48.2555 l 77.1772,48.1875 c -4.262,28.009 -5.2227,56.052 -2.458,83.5676 l -79.065,43.0761 c -16.8196,9.1336 -24.5557,29.1325 -18.2787,47.2724 l 17.3849,50.2045 c 6.3191,18.1844 24.7932,29.0633 43.6524,25.8346 l 89.6491,-15.2215 c 21.5728,33.0569 49.3581,62.2945 82.186,86.3979 l -20.3601,88.1701 c -4.4152,18.6241 5.4355,37.7106 23.1325,45.0409 l 49.1485,20.358 c 17.7329,7.3453 38.1444,0.7948 48.2544,-15.4704 l 47.8972,-76.7638 c 33.8903,5.2195 67.749,5.0671 100.778,0.071 l 48.92,78.3932 c 10.079,16.249 30.5059,22.8159 48.2375,15.4498 l 49.1238,-20.347 c 17.6819,-7.3272 27.5483,-26.357 23.1303,-45.0572 l -20.737,-89.8328 c 27.111,-19.8761 51.4189,-43.9027 71.8491,-71.7848 l 87.673,20.2743 c 18.6732,4.3619 37.7131,-5.4519 45.0583,-23.1848 l 20.342,-49.1097 c 7.3185,-17.7419 0.7943,-38.1435 -15.4955,-48.2647 z"
         style="fill:#1a1a1a"
         sodipodi:nodetypes="ccccccccccssccccccccccssccccccccccssccccccccccscc" />
      <circle
         style="fill:#ffffff"
         id="path3480"
         cx="1476.4104"
         cy="1362.3618"
         r="219.7307" />
      <g
         id="g4343"
         transform="translate(-25.417795,0)">
        <text
           sodipodi:linespacing="125%"
           id="text3482"
           y="1704.96"
           x="496.31439"
           style="font-style:normal;font-variant:normal;font-weight:500;font-stretch:normal;font-size:1427.49255371px;line-height:125%;font-family:KacstDecorative;-inkscape-font-specification:'KacstDecorative Medium';letter-spacing:0px;word-spacing:0px;fill:#4d4d4d;fill-opacity:1;stroke:#4d4d4d;stroke-width:30.61870956;stroke-linecap:butt;stroke-linejoin:miter;stroke-miterlimit:4;stroke-dasharray:none;stroke-opacity:1"
           xml:space="preserve"><tspan
             y="1704.96"
             x="496.31439"
             id="tspan3484"
             sodipodi:role="line"
             style="font-style:normal;font-variant:normal;font-weight:500;font-stretch:normal;font-family:'Tlwg Typo';-inkscape-font-specification:'Tlwg Typo Medium';fill:#4d4d4d;stroke:#4d4d4d;stroke-width:30.61870956;stroke-miterlimit:4;stroke-dasharray:none;stroke-opacity:1">{</tspan></text>
        <text
           transform="scale(-1,-1)"
           xml:space="preserve"
           style="font-style:normal;font-variant:normal;font-weight:500;font-stretch:normal;font-size:1427.49255371px;line-height:125%;font-family:KacstDecorative;-inkscape-font-specification:'KacstDecorative Medium';letter-spacing:0px;word-spacing:0px;fill:#4d4d4d;fill-opacity:1;stroke:#4d4d4d;stroke-width:30.61870956;stroke-linecap:butt;stroke-linejoin:miter;stroke-miterlimit:4;stroke-dasharray:none;stroke-opacity:1"
           x="-2507.342"
           y="-1019.7635"
           id="text3500"
           sodipodi:linespacing="125%"><tspan
             style="font-style:normal;font-variant:normal;font-weight:500;font-stretch:normal;font-family:'Tlwg Typo';-inkscape-font-specification:'Tlwg Typo Medium';fill:#4d4d4d;stroke:#4d4d4d;stroke-width:30.61870956;stroke-miterlimit:4;stroke-dasharray:none;stroke-opacity:1"
             sodipodi:role="line"
             id="tspan3502"
             x="-2507.342"
             y="-1019.7635">{</tspan></text>
      </g>
    </g>
  </g>
</svg>
